<svg xmlns="http://www.w3.org/2000/svg" viewBox="0 0 457.23 88.2"><defs><style>.cls-1{fill:#fdd60c;}</style></defs><title>Asset 1</title><g id="Layer_2" data-name="Layer 2"><g id="Capa_1" data-name="Capa 1"><path class="cls-1" d="M17.76.61,41.28,66.39,64.55.61H82.32l-33.94,87H34.18L0,.61Z"/><path class="cls-1" d="M91.62,87.58V.61h16.91v87Z"/><path class="cls-1" d="M280.51,77.78Q270.1,88.21,256.25,88.2a38.49,38.49,0,0,1-16.1-3.43A40.55,40.55,0,0,1,227,75.33a44.88,44.88,0,0,1-8.82-14.14A46.93,46.93,0,0,1,215,43.61a44.18,44.18,0,0,1,12.19-30.69,43,43,0,0,1,13.41-9.43A40.23,40.23,0,0,1,257.36,0q12.24,0,21,5.14A33.3,33.3,0,0,1,291.53,19L278.91,28.3a23.4,23.4,0,0,0-9.24-9.93,25.5,25.5,0,0,0-12.93-3.43,22,22,0,0,0-10.1,2.33,23.69,23.69,0,0,0-7.84,6.37,29.92,29.92,0,0,0-5,9.31A34.5,34.5,0,0,0,232,44.1a32.83,32.83,0,0,0,2,11.45,29,29,0,0,0,5.39,9.25A25.3,25.3,0,0,0,247.5,71a23.28,23.28,0,0,0,10.22,2.26q12.61,0,22.79-11.88"/><polygon class="cls-1" points="283.73 61.37 283.73 55.24 266.21 55.24 266.21 42.87 297.69 42.87 297.69 87.58 283.73 87.58 283.73 77.78 283.73 61.37"/><path class="cls-1" d="M325.83,72.76h43.48V87.58H308.92V.61h59.29V15.43H325.83Zm12.91-36.38h19.68V50.1H338.74"/><polygon class="cls-1" points="126.25 0.52 126.25 21.69 198.44 87.54 198.44 69.59 126.25 0.52"/><polygon class="cls-1" points="125.85 27.03 125.85 87.58 142.75 87.58 142.75 41.94 125.85 27.03"/><polygon class="cls-1" points="199.23 0.73 182.32 0.73 182.32 49.76 199.23 65.62 199.23 0.73"/><polygon class="cls-1" points="384.26 0.52 384.26 21.69 456.44 87.54 456.44 69.59 384.26 0.52"/><polygon class="cls-1" points="383.86 27.03 383.86 87.58 400.76 87.58 400.76 41.94 383.86 27.03"/><polygon class="cls-1" points="457.23 0.73 440.33 0.73 440.33 49.76 457.23 65.62 457.23 0.73"/></g></g></svg>